<svg width="1659" height="160" viewBox="0 0 1659 160" fill="none" xmlns="http://www.w3.org/2000/svg">
<path fill-rule="evenodd" clip-rule="evenodd" d="M1659 79.2381V64H1531.38V79.2381L1403.77 79.2381V143.238H1276.15V32H1148.54V111.238H1020.92V96H893.308V96H765.692V47.2381L638.077 47.2381V128H510.462V96L382.846 96V160H255.231V47.2381H127.615V15.2381H-5.72205e-06V-2.98023e-06H127.615V-2.98023e-06H255.231V-2.98023e-06H382.846V-2.98023e-06H510.462V-2.98023e-06L638.077 -2.98023e-06V-2.98023e-06H765.692V-2.98023e-06H893.308V-2.98023e-06H1020.92V-2.98023e-06H1148.54V-2.98023e-06H1276.15V-2.98023e-06L1403.77 -2.98023e-06V-2.98023e-06H1531.38V-2.98023e-06H1659V-2.98023e-06V79.2381Z" fill="#3E00FF"/>
</svg>
